<?xml version="1.0" encoding="UTF-8"?>
<svg id="logo-svg" xmlns="http://www.w3.org/2000/svg" version="1.1" viewBox="0 0 200 79.1">
  <!-- Generator: Adobe Illustrator 29.4.0, SVG Export Plug-In . SVG Version: 2.1.0 Build 152)  -->
  <defs>
    <style>
      .st0 {
        fill: #fff;
      }
    </style>
  </defs>
  <g id="Trapezoid">
    <polygon points="179.6 79.1 17.5 79.1 0 .2 200 .2 179.6 79.1"/>
  </g>
  <g id="The">
    <g>
      <path class="st0" d="M44.6,19.4l-.6.2c-.7-1.3-1.9-2.3-3.3-2.3s-.6.3-.6.7v6.9c0,.4,0,.9,0,1.2.2.5.7.5,1.2.5h.3v.5h-4.7v-.4h.3c.4,0,.9,0,1.2-.5,0-.3,0-.9,0-1.2v-6.8c0-.5,0-.8-.7-.8-1.5,0-2.7.9-3.4,2.3l-.5-.2.9-2.7h8.9l.9,2.8v-.2Z"/>
      <path class="st0" d="M52.6,25.2c0,.9,0,1.4,1.1,1.5h0v.5h-4.1v-.4h.2c1,0,1.2-.5,1.2-1.5v-3.3c0-.4,0-.8-.2-1.1s-.7-.4-1-.4c-.9,0-2.1.6-2.7,1.2v3.6c0,.9,0,1.5,1,1.5h.2v.4h-4.1v-.4h0c1,0,1.2-.5,1.2-1.5v-6.5c0-.8,0-1.4-1.2-1.5h-.2v-.4c.7,0,1.5-.2,2.2-.5h.6v4.7c.9-.7,1.9-1.3,3.1-1.3s1.2.1,1.7.5c.6.4.6,1.1.6,1.7h0v3.3h.2Z"/>
      <path class="st0" d="M56.3,22.7v.8c0,.7.3,1.5.7,2.1.4.7,1.2.9,2,.9s1.7-.5,2.3-1.4l.5.3c-.6,1.2-1.8,1.8-3.1,1.8s-1.9-.3-2.7-1c-.7-.7-1.2-1.8-1.2-2.8,0-2.2,1.4-3.8,3.6-3.8h0c1.8,0,3.3,1.2,3.3,3.1h-5.4ZM60,22.1c0-1.2-.7-1.9-1.7-1.9s-1.8.9-1.9,1.9h3.6Z"/>
    </g>
  </g>
  <g id="Pragmatic">
    <g>
      <path class="st0" d="M21.7,39.3c0,.6,0,1.3.2,1.7.4.8,1.2.9,2,.9h.5v.8h-7.6v-.8h.2c.7,0,1.5,0,1.7-.9.3-.6.3-1.5.3-2.2v-10.6c0-1.4-.1-2.4-2-2.5h-.4v-.8h8.6c1.5,0,3.1.1,4.4.9,1.5.9,2.3,2.3,2.3,4s-.7,3-1.9,3.9c-1.3,1-3.2,1.2-4.8,1.2h-3.6v4.3h.1ZM24.9,34c1.3,0,2.5,0,3.4-1.1.8-.9,1-1.8,1-3s-.4-2.3-1.2-3-2-.9-3.1-.9-2.4,0-2.9.5c-.4.2-.4.8-.4,1.2v6.3s3.2,0,3.2,0Z"/>
      <path class="st0" d="M37.6,39.4c0,1.5.3,2.4,2,2.5h.4v.8h-7.2v-.8h.3c1.7,0,2-.9,2-2.5v-5.5c0-1.5-.3-2.4-1.9-2.5h-.5v-.8l4-.6h.9v2c1.2-1.2,2.6-2.3,4.4-2.3s2,.4,2,1.4-.7,1.4-1.5,1.4c-1.2,0-1.5-.9-2.3-.9s-2,.8-2.5,1.5v6.3h-.1Z"/>
      <path class="st0" d="M59.1,42.1c-.7.6-1.7.9-2.5.9h0c-1.3,0-2.5-.6-2.8-1.9-1.5,1.2-3,1.9-4.9,1.9s-4-1-4-3.1,1.1-2.6,2.6-3.3c1.4-.7,2.9-.9,4.4-1.1l2-.2v-1.9c0-.8-.2-1.5-.9-2-.7-.4-1.6-.6-2.3-.6s-2.5.4-2.5,1.4v.4c0,.9-.4,1.6-1.3,1.6s-1.2-.5-1.2-1.2c0-1.1,1.2-2,2.1-2.5,1.1-.4,2.5-.7,3.7-.7h0c1.1,0,2.5.4,3.4.9,1.4.7,1.5,1.7,1.5,3.2v5.2c0,1.1,0,2.8,1.5,2.8s.7-.2,1.1-.4l.4.6h-.3ZM53.6,36.2c-2,.2-6.3.7-6.3,3.3s1.1,2.1,2.4,2.1,2.8-.9,3.9-1.7v-3.7h0Z"/>
      <path class="st0" d="M68.8,41.5c2,.3,4.2.7,4.2,3.2s-4.2,4.4-7.1,4.4-6.6-.5-6.6-3.3,1.5-2.3,2.7-2.8h0c-1-.4-1.9-1-1.9-2.2s1.2-2.4,2.5-2.7c-1.3-.7-2-2.1-2-3.6h0c0-3.1,2.5-4.7,5.2-4.7s1.6.1,2.4.4c.7-1.2,1.8-2.3,3.3-2.3s1.5.3,1.5,1.1-.4,1-.9,1-1.1-.4-1.7-.4-1,.6-1.4,1c1.3.9,2.2,2.3,2.2,3.9s-.7,2.5-1.6,3.3c-1,.9-2.5,1.1-3.9,1.1s-1.6,0-2.3-.4c-.5.2-1.2.8-1.2,1.4,0,.9,1.5,1,2,1.1l4.5.6h0ZM63.1,43.3c-1,.3-2.1,1.2-2.1,2.3,0,2.3,3.5,2.7,5.2,2.7s5-.4,5-2.6-1.9-1.6-3-1.7l-5.1-.7ZM63.2,34.4c0,2,.5,3.6,2.8,3.6s1.9-.4,2.3-1.2c.4-.7.4-1.7.4-2.5,0-1.9-.4-3.6-2.7-3.6s-2.8,1.8-2.8,3.6h0Z"/>
      <path class="st0" d="M78.3,39.4c0,1.5.2,2.4,1.9,2.5h.3v.8h-6.7v-.8c1.7,0,2-1,2-2.5v-5.5c0-1.5-.3-2.4-1.9-2.5h-.4v-.8l4-.6h.9v1.8c1.2-1.2,2.9-2,4.9-2s2.8.4,3.6,2c1.3-1.2,3.1-2,4.8-2h0c1.1,0,2.3.4,3,1.3.6.7.7,1.7.7,2.5v5.7c0,1.4.2,2.4,2,2.5v.8h-6.6v-.8h.2c1.7,0,2-1,2-2.5v-5.2c0-.6,0-1.2-.2-1.7-.3-.8-1-1.3-1.9-1.3-1.4,0-2.8.9-3.9,1.7v6.5c0,1.5.3,2.4,2,2.5h.2v.8h-7v-.8h.2c1.7,0,2-1,2-2.5v-5.2c0-1.5,0-3-2-3s-3,.9-4,1.7v6.4h0v.2Z"/>
      <path class="st0" d="M113,42.1c-.7.6-1.7.9-2.5.9h0c-1.3,0-2.5-.6-2.8-1.9-1.5,1.2-3,1.9-4.9,1.9s-4-1-4-3.1,1.1-2.6,2.6-3.3c1.4-.7,2.9-.9,4.4-1.1l2-.2v-1.9c0-.8-.2-1.5-.9-2-.7-.4-1.6-.6-2.3-.6s-2.5.4-2.5,1.4v.4c0,.9-.4,1.6-1.3,1.6s-1.2-.5-1.2-1.2c0-1.1,1.2-2,2.1-2.5,1.1-.4,2.5-.7,3.7-.7h0c1.1,0,2.5.4,3.4.9,1.4.7,1.5,1.7,1.5,3.2v5.2c0,1.1,0,2.8,1.5,2.8s.7-.2,1.1-.4l.4.6h-.3ZM107.6,36.2c-2,.2-6.3.7-6.3,3.3s1.1,2.1,2.4,2.1,2.8-.9,3.9-1.7v-3.7h0Z"/>
      <path class="st0" d="M121.8,30.9h-3.7v7.3c0,1.5,0,3.6,2,3.6s1.7-.5,2.3-1.2l.7.6c-.9,1.2-2.3,1.7-3.7,1.7s-1.9-.2-2.6-.7c-1-.7-1.2-1.7-1.2-2.8v-8.5h-2.2v-.9c3,0,3.6-2.3,3.6-4.8h1.1v4.8h3.7v.9h0-.1Z"/>
      <path class="st0" d="M128.2,39.4c0,1.5.2,2.4,1.9,2.5h.3v.8h-6.9v-.8h.2c1.7,0,2-.9,2-2.5v-5.5c0-1.5-.3-2.4-1.9-2.5h-.4v-.8l4-.6h.9v9.4h0ZM126.9,28.8c-.9,0-1.5-.7-1.5-1.6s.7-1.5,1.6-1.5,1.6.7,1.6,1.6-.8,1.5-1.7,1.5Z"/>
      <path class="st0" d="M143.7,40.1c-1.3,2-3.2,2.9-5.6,2.9-3.9,0-6.5-2.5-6.5-6.5s2.4-6.7,6.5-6.7,2.4.2,3.5.9c.9.6,1.7,1.5,1.7,2.5s-.5,1.5-1.3,1.5-1.3-.5-1.3-1.2v-1c0-1.2-1.7-1.7-2.6-1.7-3,0-3.6,3.3-3.6,5.6h0c0,2.7,1.2,5.5,4.2,5.5s3-1,4.1-2.4l.8.5h.1Z"/>
    </g>
  </g>
  <g id="Bookshelf">
    <g>
      <path class="st0" d="M49.9,62.8v-.8h.3c.7,0,1.5,0,1.9-.9s.3-1.2.3-1.9v-10.9c0-1.4,0-2.4-2-2.5h-.4v-.9h8.9c1.4,0,3.4,0,4.7.5,1.7.6,2.9,1.9,2.9,3.7s-1.7,3.3-3.8,3.7h0c2.4.4,4.7,1.9,4.7,4.6s-1,3.6-2.8,4.4c-1.6.8-3.8.9-5.5.9h-9.3.1ZM57.8,52.6c2.4,0,6,0,6-3.3s-3.1-3.3-5.4-3.3-2.4,0-3.1.6c-.4.4-.5,1.2-.5,1.9v4.2h3ZM54.9,58.6c0,.7,0,1.9.4,2.4.6.6,2.3.7,3.1.7,1.3,0,3.1,0,4.2-.8,1.2-.7,1.9-2,1.9-3.5s-.7-3.1-2.4-3.5c-1.1-.3-2.6-.3-3.9-.3h-3.3s0,5,0,5Z"/>
      <path class="st0" d="M80.3,51.5c1.3,1.2,1.9,3.2,1.9,4.9,0,3.9-2.5,6.5-6.4,6.5s-6.4-2.5-6.4-6.4,2.3-6.8,6.3-6.8,3.4.5,4.6,1.7h0ZM75.9,50.9c-3,0-3.7,3.2-3.7,5.6s.7,5.5,3.9,5.5,3.5-3,3.5-5.2,0-2.7-.7-3.9c-.6-1.1-1.7-2-2.9-2h-.1Z"/>
      <path class="st0" d="M95,51.5c1.3,1.2,1.9,3.2,1.9,4.9,0,3.9-2.5,6.5-6.4,6.5s-6.4-2.5-6.4-6.4,2.3-6.8,6.3-6.8,3.4.5,4.6,1.7h0ZM90.5,50.9c-3,0-3.7,3.2-3.7,5.6s.7,5.5,3.9,5.5,3.5-3,3.5-5.2,0-2.7-.7-3.9c-.6-1.1-1.7-2-2.9-2h-.1Z"/>
      <path class="st0" d="M103.1,56.2l3.7-3.3c.3-.3.9-.7.9-1.2s-.9-.8-1.5-.9v-.8h7v.8c-2.3.2-3.9,1.2-5.6,2.8l-.7.6,3.6,5.3c.9,1.2,1.9,2.3,3.5,2.5v.8h-7.1v-.8h.3c.5,0,1.2,0,1.2-.7s-.6-1.3-.9-1.7l-2.5-3.6-2.1,1.9v1.7c0,1.5,0,2.5,1.8,2.5h.4v.7h-7.1v-.8h.3c1.7,0,2-.9,2-2.5v-11.2c0-1.4,0-2.4-2-2.5h-.4v-.8c1.3,0,2.5-.4,3.8-.9h1v12.2h.4Z"/>
      <path class="st0" d="M125.8,54.1h-.9c-.7-1.7-2.7-3.2-4.6-3.2s-2.7.5-2.7,1.9,1.5,1.5,2.5,1.7l3,.7c2,.4,3.6,1.2,3.6,3.5s-2.9,4.2-5.5,4.2-3-.4-4.2-1.3l-.3,1.1h-.9l-.9-4.7h.9c.7,2.3,2.9,3.8,5.3,3.8s3.3-.7,3.3-2.3-1.2-1.6-2.2-1.8l-2.7-.7c-2-.5-4.2-1-4.2-3.5s2.7-3.7,4.8-3.7,2.7.4,3.7,1.2l.3-.9h.7l.9,4.1h0Z"/>
      <path class="st0" d="M142.3,59.4c0,1.5.2,2.4,1.8,2.5h.3v.8h-7v-.8h.3c1.7,0,2-.9,2-2.5v-5.6c0-.7,0-1.3-.4-1.9-.4-.5-1.1-.7-1.7-.7-1.5,0-3.6,1-4.6,2v6.2c0,1.5.2,2.4,1.7,2.5h.4v.8h-7v-.8h.3c1.7,0,2-.9,2-2.5v-11.2c0-1.4-.1-2.4-2-2.5h-.4v-.8c1.3,0,2.5-.4,3.8-.9h1v8.1c1.5-1.3,3.3-2.2,5.3-2.2s2.2.3,2.9.9c1,.8,1,1.9,1,3v5.7h.3Z"/>
      <path class="st0" d="M148.7,55.2v1.3c0,1.2.4,2.6,1,3.6.7,1.1,2,1.6,3.3,1.6s3-.9,3.9-2.4l.9.4c-.9,2-3.1,3.1-5.3,3.1s-3.3-.4-4.6-1.7-2-3.1-2-4.9c0-3.8,2.4-6.5,6.3-6.5h0c3.1,0,5.6,2,5.6,5.2h-9.2v.3ZM155,54.1c0-2-1.2-3.2-3-3.2s-3.1,1.5-3.3,3.2h6.3Z"/>
      <path class="st0" d="M163.9,59.4c0,1.4.2,2.4,1.8,2.5h.3v.8h-6.8v-.8h.2c1.7,0,2-.9,2-2.5v-11.2c0-1.4-.1-2.4-2-2.5h-.4v-.8c1.3,0,2.5-.4,3.8-.9h1v15.4h0Z"/>
      <path class="st0" d="M174.3,50.9h-2.6v8.5c0,1.5.2,2.4,1.8,2.5h.4v.8h-6.9v-.8h.2c1.7,0,2-.9,2-2.5v-8.5h-2.3v-.9h2.3v-1.1c0-1.4,0-2.6,1.1-3.7,1.2-1.2,3.1-1.7,4.7-1.7s2.3.4,2.3,1.5-.6,1.2-1.2,1.2c-1.2,0-1.2-1.5-2.5-1.5s-.9.3-1.3.6c-.6.6-.6,1.2-.6,2v2.8h2.6v.8h0Z"/>
    </g>
  </g>
</svg>